<svg width="14" height="14" viewBox="0 0 14 14" fill="none" xmlns="http://www.w3.org/2000/svg">
<path fill-rule="evenodd" clip-rule="evenodd" d="M1.5 5.5V1.5H4.5V5.5H1.5ZM0 1C0 0.447715 0.447715 0 1 0H5C5.55228 0 6 0.447715 6 1V6C6 6.55228 5.55228 7 5 7H1C0.447715 7 0 6.55228 0 6V1ZM9.5 3.5V1.5H12.5V3.5H9.5ZM8 1C8 0.447715 8.44772 0 9 0H13C13.5523 0 14 0.447715 14 1V4C14 4.55228 13.5523 5 13 5H9C8.44772 5 8 4.55228 8 4V1ZM1.5 10.5V12.5H4.5V10.5H1.5ZM1 9C0.447715 9 0 9.44771 0 10V13C0 13.5523 0.447715 14 1 14H5C5.55228 14 6 13.5523 6 13V10C6 9.44772 5.55228 9 5 9H1ZM12.5 12.5H9.5V8.5H12.5V12.5ZM8 8C8 7.44772 8.44772 7 9 7H13C13.5523 7 14 7.44772 14 8V13C14 13.5523 13.5523 14 13 14H9C8.44772 14 8 13.5523 8 13V8Z" fill="#666666"/>
</svg>
