<svg width="15" height="15" viewBox="0 0 15 15" fill="none" xmlns="http://www.w3.org/2000/svg">
<path fill-rule="evenodd" clip-rule="evenodd" d="M1.49103 4.35049C0.654015 4.83373 0.367232 5.90402 0.850482 6.74103L4 12.1962V13.25C4 14.2165 4.7835 15 5.75 15H13.25C14.2165 15 15 14.2165 15 13.25V5.75C15 4.78351 14.2165 4 13.25 4H11.9697L10.3768 1.24103C9.89351 0.404018 8.82323 0.117237 7.98622 0.600486L1.49103 4.35049ZM10.2376 4L9.07772 1.99103C9.00869 1.87146 8.85579 1.83049 8.73622 1.89952L2.24103 5.64952C2.12145 5.71856 2.08048 5.87146 2.14952 5.99103L4 9.19616V5.75C4 4.78351 4.7835 4 5.75 4H10.2376ZM5.75 5.5C5.61193 5.5 5.5 5.61193 5.5 5.75V13.25C5.5 13.3881 5.61193 13.5 5.75 13.5H13.25C13.3881 13.5 13.5 13.3881 13.5 13.25V5.75C13.5 5.61193 13.3881 5.5 13.25 5.5H5.75ZM7.5 7.25C7.08579 7.25 6.75 7.58579 6.75 8C6.75 8.41422 7.08579 8.75 7.5 8.75H11.5C11.9142 8.75 12.25 8.41422 12.25 8C12.25 7.58579 11.9142 7.25 11.5 7.25H7.5ZM7.5 10.25C7.08579 10.25 6.75 10.5858 6.75 11C6.75 11.4142 7.08579 11.75 7.5 11.75H10C10.4142 11.75 10.75 11.4142 10.75 11C10.75 10.5858 10.4142 10.25 10 10.25H7.5Z" fill="#666666"/>
</svg>
