<svg width="14" height="14" viewBox="0 0 14 14" fill="none" xmlns="http://www.w3.org/2000/svg">
<path fill-rule="evenodd" clip-rule="evenodd" d="M12.5 7C12.5 10.0376 10.0376 12.5 7 12.5C3.96243 12.5 1.5 10.0376 1.5 7C1.5 3.96243 3.96243 1.5 7 1.5C10.0376 1.5 12.5 3.96243 12.5 7ZM14 7C14 10.866 10.866 14 7 14C3.13401 14 0 10.866 0 7C0 3.13401 3.13401 0 7 0C10.866 0 14 3.13401 14 7ZM7.50977 8.81055H6.14453V8.40039C6.10352 7.58594 6.43164 7.05273 7.24023 6.57812C7.9668 6.13867 8.21289 5.82227 8.21289 5.24805V5.24219C8.21289 4.61523 7.71484 4.16992 6.98242 4.16992C6.22656 4.16992 5.75195 4.63867 5.69922 5.30664L5.69336 5.35938H4.31641L4.32227 5.29492C4.38672 3.98242 5.31836 2.97461 7.05859 2.97461C8.6582 2.97461 9.73633 3.89453 9.73633 5.18945V5.19531C9.73633 6.08594 9.29102 6.71289 8.49414 7.1875C7.72656 7.63281 7.50977 7.94336 7.50977 8.51758V8.81055ZM7.69727 10.7383C7.69727 11.2012 7.32227 11.5645 6.84766 11.5645C6.37305 11.5645 5.99219 11.2012 5.99219 10.7383C5.99219 10.2695 6.37305 9.91211 6.84766 9.91211C7.32227 9.91211 7.69727 10.2695 7.69727 10.7383Z" fill="#666666"/>
</svg>
