<svg width="6" height="8" viewBox="0 0 6 8" fill="none" xmlns="http://www.w3.org/2000/svg">
<path fill-rule="evenodd" clip-rule="evenodd" d="M1 0C0.723858 0 0.5 0.223858 0.5 0.5C0.5 0.776142 0.723858 1 1 1H2.29146C2.7882 1 3.21571 1.2964 3.40678 1.72198H2.72168C2.44554 1.72198 2.22168 1.94584 2.22168 2.22198C2.22168 2.49813 2.44554 2.72198 2.72168 2.72198H3.40675C3.21567 3.14754 2.78818 3.4439 2.29146 3.4439H1.57398C1.39149 3.4439 1.2235 3.54333 1.13568 3.7033C1.04786 3.86327 1.05418 4.05838 1.15215 4.21234L3.1611 7.36925C3.30935 7.60222 3.6184 7.6709 3.85137 7.52265C4.08434 7.37439 4.15301 7.06535 4.00476 6.83238L2.47981 4.43603C3.45052 4.35455 4.24373 3.64904 4.45693 2.72198H4.73062C5.00677 2.72198 5.23062 2.49813 5.23062 2.22198C5.23062 1.94584 5.00677 1.72198 4.73062 1.72198H4.45694C4.39687 1.46073 4.29073 1.21706 4.14754 1H4.87439C5.15053 1 5.37439 0.776142 5.37439 0.5C5.37439 0.223858 5.15053 0 4.87439 0H2.29146H1Z" fill="white"/>
</svg>
