<svg width="14" height="15" viewBox="0 0 14 15" fill="none" xmlns="http://www.w3.org/2000/svg">
<path d="M12.1869 7.79521C12.2164 7.57333 12.2312 7.34406 12.2312 7.1C12.2312 6.86333 12.2164 6.62667 12.1795 6.40479L13.6808 5.23625C13.8139 5.13271 13.8509 4.93302 13.7696 4.7851L12.3496 2.32969C12.2608 2.16698 12.0759 2.11521 11.9132 2.16698L10.1456 2.87698C9.77581 2.59594 9.38383 2.35927 8.94748 2.18177L8.68123 0.303229C8.65164 0.125729 8.50373 0 8.32623 0H5.48623C5.30873 0 5.16821 0.125729 5.13862 0.303229L4.87237 2.18177C4.43602 2.35927 4.03665 2.60333 3.67425 2.87698L1.90665 2.16698C1.74394 2.10781 1.55904 2.16698 1.47029 2.32969L0.0576877 4.7851C-0.0310622 4.94042 -0.00147899 5.13271 0.146438 5.23625L1.64779 6.40479C1.61081 6.62667 1.58123 6.87073 1.58123 7.1C1.58123 7.32927 1.59602 7.57333 1.633 7.79521L0.131646 8.96375C-0.00147898 9.06729 -0.0384581 9.26698 0.0428961 9.4149L1.4629 11.8703C1.55165 12.033 1.73654 12.0848 1.89925 12.033L3.66685 11.323C4.03665 11.6041 4.42862 11.8407 4.86498 12.0182L5.13123 13.8968C5.16821 14.0743 5.30873 14.2 5.48623 14.2H8.32623C8.50373 14.2 8.65164 14.0743 8.67383 13.8968L8.94008 12.0182C9.37644 11.8407 9.77581 11.6041 10.1382 11.323L11.9058 12.033C12.0685 12.0922 12.2534 12.033 12.3422 11.8703L13.7622 9.4149C13.8509 9.25219 13.8139 9.06729 13.6734 8.96375L12.1869 7.79521ZM6.90623 9.7625C5.44185 9.7625 4.24373 8.56437 4.24373 7.1C4.24373 5.63562 5.44185 4.4375 6.90623 4.4375C8.3706 4.4375 9.56873 5.63562 9.56873 7.1C9.56873 8.56437 8.3706 9.7625 6.90623 9.7625Z" fill="#666666"/>
</svg>
