<svg width="14" height="12" viewBox="0 0 14 12" fill="none" xmlns="http://www.w3.org/2000/svg">
<path fill-rule="evenodd" clip-rule="evenodd" d="M0 1.75C0 0.783502 0.783502 0 1.75 0H11.25C12.2165 0 13 0.783502 13 1.75V2.91841C13.5912 3.19927 14 3.8019 14 4.5V7.5C14 8.1981 13.5912 8.80073 13 9.08159V10.25C13 11.2165 12.2165 12 11.25 12H1.75C0.783501 12 0 11.2165 0 10.25V1.75ZM11.5 1.75V2.75H8C7.0335 2.75 6.25 3.5335 6.25 4.5V7.5C6.25 8.4665 7.0335 9.25 8 9.25H11.5V10.25C11.5 10.3881 11.3881 10.5 11.25 10.5H1.75C1.61193 10.5 1.5 10.3881 1.5 10.25V1.75C1.5 1.61193 1.61193 1.5 1.75 1.5H11.25C11.3881 1.5 11.5 1.61193 11.5 1.75ZM8 4.25C7.86193 4.25 7.75 4.36193 7.75 4.5V7.5C7.75 7.63807 7.86193 7.75 8 7.75H12.25C12.3881 7.75 12.5 7.63807 12.5 7.5V4.5C12.5 4.36193 12.3881 4.25 12.25 4.25H8ZM10 5C9.44771 5 9 5.44772 9 6C9 6.55228 9.44771 7 10 7C10.5523 7 11 6.55228 11 6C11 5.44772 10.5523 5 10 5Z" fill="#666666"/>
</svg>
